<?xml version="1.0" encoding="UTF-8"?>
<svg id="Layer_1" data-name="Layer 1" xmlns="http://www.w3.org/2000/svg" viewBox="0 0 1652.6 8.13">
  <defs>
    <style>
      .cls-1 {
        fill: #c5d452;
        fill-rule: evenodd;
      }

      .cls-2 {
        fill: none;
      }
    </style>
  </defs>
  <rect class="cls-2" y="0" width="1652.6" height="8.13"/>
  <path class="cls-1" d="m1652.51,3.19c.41.07-.67.09-.96.13-1.41-.03-3.05-.05-2.9-.13h3.86Z"/>
  <path class="cls-1" d="m1531.03.58c-4.57.01-4.71-.12-8.67-.13-3.6-.03-3.12.07-4.82.1-21.35-.12-42.08-.06-59.78.13.46-.07-1.38-.06-2.9-.06.18-.14,1.68-.25,3.86-.32,21.34-.13,40.98-.11,61.71-.29-1.72.37,11.31.24,10.6.58Z"/>
  <path class="cls-1" d="m1308.32.16c-1.43-.06-4.98-.05-4.82-.16,2.79.01,4.4.07,4.82.16Z"/>
  <path class="cls-1" d="m1289.03,7.93c-3.89.05-12.04.06-13.5-.06-5.41.11-10.56.23-19.28.23-.76-.06-1.61-.12-1.93-.19,9.74-.24,32.88-.64,34.71.03Z"/>
  <path class="cls-1" d="m1104.88,1.29c4.08.03-3.4.09,0,.1-.69.07-5.49.02-4.81-.06,1.4-.02,4.97.04,4.81-.03Z"/>
  <path class="cls-1" d="m993.05.9c.27.08-.36.14-2.9.13-.27-.08.36-.14,2.9-.13Z"/>
  <path class="cls-1" d="m833.97,2c-5.73-.12-5.06.1-8.68-.06-10.41.12-24.16,0-34.71.03-5.23.02-10.06.13-15.43.16-21.32.14-45.03.08-66.53.1-12.4,0-25.18.04-35.67-.06,8.78-.49,30.27-.26,44.35-.23,2.78-.02,4.98-.07,6.75-.13,36.7.11,63.14-.44,93.52,0,5.17-.09,9.64-.01,15.43-.1.85.01,1.72.03,1.92.06,1.37.05-.21.16-.96.23Z"/>
  <path class="cls-1" d="m703.81,2.93c-3.2.05-9.97.07-9.64-.1-3.64.09-7.7-.03-12.53,0-26.97-.32-63.3-.21-97.38-.42-1.28-.15,2.15-.14,3.86-.19,13.58.09,23.57-.17,36.64-.03,16.79-.2,36.18.19,52.06.26,6.12.15,17.55.22,27.96.19.99.04.04.22-.97.29Z"/>
  <path class="cls-1" d="m609.32,3.06v.1c-8.26.08-16.24-.05-24.09.03,1.4-.14,6.21-.16,8.68-.26,6.04.05,10.73,0,15.42.13Z"/>
  <path class="cls-1" d="m581.36,2.32c.71.16-8.55.1-10.6.06,3.31-.1,6.77,0,10.6-.06Z"/>
  <path class="cls-1" d="m385.65,2.16c-1.23.12-7.43.39-11.56.19-9.32.23-20.46.13-32.78.23.91-.13-5.22-.11-6.75-.06.4.11,3.74-.09,2.9.06-7.98.06-15.83,0-21.21.1-.27-.05.91-.06.95-.1-.15-.04-1.75-.03-2.88-.03.33-.06,8.43-.05,4.82.03,1.73,0,2.03-.04,3.86-.03-3.6-.04,1.16-.18-4.82-.16.22-.05,2.87-.01,2.89-.06,1.69.03,1.77.11,2.89.16,2.92-.06,14.46,0,11.57-.16,3.95-.1,12.65.23,16.39.03,12.01.05,18.52-.16,33.74-.19Z"/>
  <path class="cls-1" d="m312.37,2.68c-1.96-.02-3.93-.1-1.93-.16,2.11,0,2.07.08,1.93.16Z"/>
  <path class="cls-1" d="m305.63,2.77c-3.03.02-2.55-.09-4.82-.1,1.41-.09,5.29.01,4.82.1Z"/>
  <path class="cls-1" d="m292.13,2.55c-.43.12-5.48-.01-8.68.06.34-.11,5.56-.05,8.68-.06Z"/>
  <path class="cls-1" d="m277.67,2.61c-1.63.05-2.39.14-5.79.13,1.03-.07,2.93-.12,5.79-.13Z"/>
  <path class="cls-1" d="m174.5,1.32c-3.12-.02-5.04-.09-5.78-.19,1.69.07,5.49.07,5.78.19Z"/>
  <path class="cls-1" d="m354.8,7.26c8.33.08,17.25.17,25.07.03,17.91.1,39.73.31,57.85.13,6.37.12,13.65,0,20.24.06,31.3.28,63.79-.07,94.48-.45h6.75c9.33-.09,18.48-.28,28.92-.35,21.51-.16,47.05-.03,69.41.06.1.05-.13.11,1.93.1,21.81.16,42.5.51,65.56.52,5.62,0,10.91-.11,16.39,0,5.86-.1,13.21-.16,20.24-.23,13.18.09,34.35,0,45.32-.26,7.64.09,14.42-.05,22.17-.06,43.03-.07,99.67-.04,143.65-.1,4-.11,7-.07,11.57-.13,12.4.15,35.69.02,48.2-.13,7.12.16,19.2.05,29.89.13,8.37.06,15.92.26,22.18.1,18.82.07,38.74-.1,59.77.13,8.53.09,17.15.24,26.04.32,12.03-.05,23.36,0,35.67-.06.15-.04-.17-.09.96-.1,7.18.06,18.57-.21,27.96-.1,15.06-.22,28.28-.6,53.03-.52,9.71-.33,30.92-.22,44.35-.35,10.31.06,27.21.1,34.71.35,6.63.04,12.77.09,21.21.06,2.5.03,3.59.12,6.75.13,1.35-.05,3.33-.08,5.79-.1,14.2.22,37,.2,53.98.06,1.94.12,6.48-.03,8.68.1,28.53-.16,59.6-.54,88.71-.16,4.76.39,12.82.6,14.46,1.03,2.43.07,6.6.08,7.71.19-.46.1,1.37.13,1.93.19,8.59.17,25.25.4,34.71.16,4.7-.31,10.44-.63,2.89-.97,1.06-.67-10.81-1.46,12.53-1.61,3.63-.3,7.66-.49,5.78-.9-5.76-.19-8.7-.48-17.35-.65,1.8-.06.11-.08,0-.16-4.07-.03-10.2.02-10.61-.13,10.21.04,11.56-.22,19.29-.26,8.58-.3,5.3-.81,11.57-1.06,2.51.04,2.91.07,5.78.03,1.63-.22-2.01-.28,2.9-.42-1.73-.13-4.22-.11-7.71-.13-2.87-.34-12.77-.45-21.21-.61-24.98,0-41.39-.43-62.67-.35-.6-.2-8.4-.18-12.54-.1-1.77-.08-.67-.26-3.86-.29-2.67.09.87.13.97.23-3.55.07-11.78.12-14.46.03-6.48.16-18.82.1-27,.26-3.11-.13-7.72-.21-14.46-.23-.12.11-1.58.18-2.88.26-18.43.19-28.38-.2-46.29,0-4.88-.09-12.38-.1-20.24-.1-19.63-.38-48.95-.41-73.28-.13-6.75-.33-17.58-.12-26.03-.19-13.41-.12-26.75-.41-40.49-.23-1.59,0-.54.09-1.93.1-10.07-.03-23.3.06-34.71.06-8.13,0-15.97-.12-24.1-.06-9.45.07-16.56.2-22.18.48-7.34-.01-15.67.37-23.13.19-1.44.04-1.13.13-3.85.13-1.9,0-1.92-.04-2.9-.06.09.12,1.08.09,0,.19,5.4-.06,7.97-.05,12.53-.16,1.31.01,1.85.05,3.86.03,10.48-.2,22.71-.43,36.63-.55,13.41-.11,27.35.04,36.64-.16,2.21.01,1.28.13,2.9.16,5.01-.11,9.44.04,15.42,0,4.21-.03,7.76-.18,12.53-.19,9.69-.02,15.79.13,27,.13,4.61.22,15.7.08,16.39.29-2.15.11-6.83-.13-9.64,0,1.92.03,4.11.06,4.82.13-9.88.22-13.55.64-26.03.77-10.41-.03-17.94.04-24.11.16-33.5-.19-80.5-.08-113.77.16-8.21-.09-15.1-.1-25.06-.03-11.53-.43-39.28.13-50.13-.13-4.95.33-20.92.17-26.03,0-1.94.22-9.68.14-14.46.06-.02-.05,4.06-.1,0-.1-1.9,0-1.91.04-2.89.06-1.75-.07-4.03-.12-4.82-.23-3.57-.02-4.13.05-7.71.03.97-.06,1.66-.14,3.85-.16,5.18-.04,5.91.06,8.68.1-.12-.08-1.85-.1.96-.13,1.3.2,6.19-.05,8.68.13-1.79,0-3.22.02-3.86.06,3.78-.03,8.28-.06,11.58-.1-1.03,0-2.45-.02-.96-.03-33.99-.37-63.79-.21-97.38-.13-1.82-.08-5.37-.1-8.68-.13-9.71.08-16.64.08-19.28.42,11.66,0,20.85-.08,39.53-.06,3.87.09,6.87.2,7.71.39-14.97.12-31.03-.1-45.32,0-2.05.01-2.88.06-4.82.06-11.94.02-17.93-.06-26.03-.1-15.69-.08-32.53,0-48.21-.06-3.45-.01-6.86-.16-10.6-.03,8.51.09,17.91.12,24.1.06,8.84.11,24.05.15,34.71.16,21.13.27,36.97.06,62.66.19,1.31.17,4.4.14,8.68.16-.3.19,2.9.27,7.71.29,2.68-.05-1.67-.13.97-.16,2.76.06,5.36.12,5.79.26-2.56,0-5.51.01-6.76-.03.89.15,6.78.14,6.76.32-19.18.08-36.11.38-54.96.29-2.5-.09-3.75-.22-6.75-.29-2.02.13,4.94.21,5.78.35-5.64.1-14.37.1-19.28.23-1.14-.05-.83-.14-3.86-.13-18.06-.08-30.23.1-44.35.16-21.42.09-40.76-.07-64.6.06-1.54-.02.22-.16-2.88-.13-14.27-.05-34.64.08-42.43-.39-6.06.03-7.61-.09-11.57-.13-1.8.03-3.53.05-5.78.06-2.1-.12-8.6-.04-13.5-.06-5.47-.03-9.81-.18-15.43-.23-9.78-.08-13.82.03-18.31.1-5.55.09-13.81.12-17.36.32,1.65.05,3.42.1,4.82.16,6.3-.12,13.52-.37,22.17-.35,5.44,0,8.86.21,14.47.13v.1c29.61-.13,43.58.71,72.31.61,7.45.15,14.37.31,20.24.52-10.06-.04-13.41.15-23.14.13-24.56.47-57.99.1-85.81.26-20.7-.16-38.47.07-58.81.1-2.91-.18-12.53-.14-19.28-.19-1.97.02-.27.16-3.86.13-14.5-.02-15.59-.54-26.03-.65-1.87-.02-5.2.04-7.72.03-3.61,0-10.58-.08-13.49-.06-10.52.04-20.34.26-31.82.26-16.43,0-35.04-.04-53.03-.06-14.7-.21-37.11.03-55.92-.16-14.66.21-38.36-.08-52.07.29-2.53,0-.76-.12-3.85-.1-8.32.16-17.74.09-23.14.35-2.24.01-3.7,0-4.82-.03-25.66.32-52.49.81-85.81.68-10.69-.32-20.42-.67-31.82-.97-9.4-.4-17.71-.83-33.74-1-17.26.2-29.44.73-38.57,1.1-6.41.05-8.95.27-10.6.39-14.93.16-27.11.28-42.42.35-30.69.14-49.27-.75-79.06-.64-1.29-.03-1.89-.09-3.86-.1-1.8.2-11.84-.15-13.5.16,5.02.21,16.02.35,25.06.32,3.04.18,8.41.08,13.5.13,6.39.06,11.99.29,17.36.35,1.55.02,3.26-.04,3.85-.03,4.3.04,7.81.18,13.5.19,12.69.03,16.6-.03,27.95-.1,23.01-.14,46.27-.25,53.99-.9,8.63,0,11.26-.46,18.33-.61,9.74-.03,7.74-.13,17.35-.1,19.18.72,32.22,1.65,57.85,2.16,6.07-.02,11.91-.03,15.42.1-27.33.49-80.89-.12-110.87.42,3.28.15,7.53.06,11.57.06,22.2,0,46.68.04,73.27,0,15.81-.03,30.7-.34,48.21-.29,10.23.03,18.19.15,29.89.13.41.05,3.03.03,1.93.13,13.65-.06,25.09.52,37.6.23-.54.07-2.9.06-.96.13Zm1258.18-2.48c-1.21,0-.97-.06,0-.06-.15-.04-1.75-.03-2.88-.03.25-.07,3.59-.03,3.85-.1-1.55-.06-3.61-.09-5.79-.13,5.4-.13,8.95.21,4.82.32Zm-61.7-1c-.89-.31,12.45-.36,15.43-.32,3.01.03,8.09.18,4.82.29-3.63.12-14.57-.1-20.25.03Zm-26.99.42c.31.07-.15.12-.97.16-5.33-.15-17.38-.07-21.2-.32,9.24.04,11.77.14,22.17.16Zm-30.85-.52c.7.09-1.92.06-1.94.13-1.27-.06-4.18-.07-4.81-.16,3.34-.03,3.7.05,6.74.03Zm-2.89.77c-10.89-.1-23.14-.22-35.68-.19-10.81.02-21.17.29-29.88.19,9.62-.19,24.8-.2,32.78-.45,9.47.07,20.84.22,27.96.1.78.15,5.27.17,4.82.35Zm-6.75-.81v.1c-4.01.03-11.27.08-11.57-.1,4.78-.07,6.62-.05,11.57,0Zm-12.53-.1c-.75.03-1.04.07-.97.13-4.26.02-3.32-.17.97-.13Zm-.97-.64c-1.22-.11-4.72-.01-6.75-.03-3.94-.04-6.31-.17-9.64-.19-6.12-.04-8.51.15-16.39.13-2.48,0-1.55.12-2.9.16-36.44.24-69.8.35-111.84.03,1.72-.32,14.07-.2,12.54-.68,22.8-.12,39.91.14,58.81-.19,13.17,0,24.02.15,39.53.16,15.97.02,31.78.04,36.63.61Zm-67.48-.94c-3.15,0-2.79-.1-4.82-.13-6.34.02-9.29-.08-13.5-.13-10.09-.07-30.68.16-37.6-.1,6.1.07,9.91-.25,16.39-.16,8.83-.42,18.11-.58,37.61-.42,4.15.03,8.43.19,12.53.23,7.64.07,15.4-.05,19.28.13-2.54.44-23.04.28-29.89.58Zm19.28,2.52c-2.2.09-3.73.02-7.72.06.33-.15,5.34-.07,7.72-.06Zm-143.66.23c-12.93.01-25.45.12-39.53.06-13.06-.05-20.07-.26-36.63-.23-4.85.01-8,.13-15.43.16-8.31.04-16.29-.09-22.17.13-9.28-.06-18.28-.16-26.03.03,2.41-.25,13.8-.48,21.21-.68,41.42.06,81.49-.14,118.59.42v.1Zm-192.83.23c-.21.05-2.87.01-2.88.06-9.83-.11-17.71.05-25.07.06-3.5,0-7.03-.09-11.57-.1-6.05-.01-13.99.16-16.39-.06-5.62.14-15.94-.02-22.17.13.29-.16,9.83-.29,3.85-.45-2.56.06-2.52.22-4.82.29-6.03,0-10.02-.05-10.61-.23,8.08-.23,31.98-.28,42.43-.13,7.13-.11,12.94-.02,20.25.03.46-.07-1.38-.06-2.89-.06,8.95-.15,18.37.36,27.96.29,1.66.02-.08.15,1.92.16Zm-92.55-.13c-2.01-.02-3.12-.07-4.82-.1.43-.09,2.03-.15,4.82-.16,2.69.07,1.4.17,0,.26Zm-50.13,1.45c-13.88.01-28.08.09-41.46.13-19.17.06-44.3-.06-63.63.13-7.21-.07-23.41-.17-28.92.06-14.71-.06-29.12.14-42.42.23-18.01-.09-37.79.14-57.85-.03-4.52-.04-7.9-.18-12.53-.23-4.02-.04-8.93,0-13.5-.03-6.58-.05-12.92-.21-19.28-.26-2.92-.02-6.79.02-9.64,0-1.9-.02-3.09-.11-4.82-.13-5.35-.07-11.93-.02-16.39-.13-15.85.09-30.17.05-49.17.13,8.52-.18,17.76-.33,20.24-.71,9.58,0,18.55-.06,27.96,0,6.79.04,9.11.09,20.25.06,5.03-.01,9.78-.09,14.46-.1,12.49-.02,25.36.1,37.6.1,10.45,0,20.88-.13,28.93.03,16.8-.08,37.56.14,52.06-.16,11.9.13,24.54-.05,34.71-.06,9.49.31,22.38.66,39.53.55,13.89-.09,22.03-.61,32.78-.77,5.86.13,10.15-.05,16.39-.03,9.41.03,20.1.25,33.75.13-1.89.33-1.87.59-4.82.84,1.35.11,5.77.11,5.79.26Zm-366.37-.13c-.31.08-1.53.12-.96.23-5.06-.12-11.09.07-15.42.16-14.38.04-25.32.19-39.53.23-2.98-.04-4.98-.11-7.71-.16-9.85,0-19.67-.05-28.92-.06-10.02-.01-20.47.07-29.89.06-10.45,0-21.07-.25-29.89-.03-10.42-.05-24.85-.24-33.74-.13-8.68-.17-23.31-.11-34.71-.26-22.16.12-36.12.57-60.73.29,8.58-.19,21.68-.05,27.96-.29,9.22.05,17.69-.18,24.1-.26,5.5-.07,12.52-.06,18.32-.13,7.09-.08,11.06-.21,22.17-.23,4.41,0,8.59,0,13.5,0,10.22,0,21.64.18,29.89.16,2.24,0,4.54-.07,6.75-.06,5.21.01,11.55.16,17.36.16.89,0,3.88-.07,4.82-.06,2.86.01,5.93.11,8.67.13,18.58.15,43.64.08,66.53.13,4.66,0,8.9.08,13.5.06,3.09,0,6.48-.07,9.64-.06,6.36.02,11.76.22,18.32.13Zm-225.6.94c-2.64,0-1.94.05-3.86,0-.76-.12,4.62-.12,3.86,0Z"/>
  <path class="cls-1" d="m1134.77,1.39c2-.02,3.11-.07,4.82-.1,4.45.11,13.85-.12,17.36.06-13.58.04-23.96.04-36.64.03,2.08-.12,14.28-.07,14.46,0Z"/>
  <path class="cls-1" d="m1110.67,1.29c3.45,0,3.53-.1,6.74-.1-1.28.11-5.64.11-6.74.23-2.49,0,1.32-.06,0-.13Z"/>
  <path class="cls-1" d="m317.19,2.35c-4.7.16-16.91.08-23.13.19,6.26-.18,15.79-.09,23.13-.19Z"/>
</svg>